<?xml version="1.0" encoding="iso-8859-1"?>
<!-- Generator: Adobe Illustrator 19.0.0, SVG Export Plug-In . SVG Version: 6.00 Build 0)  -->
<svg version="1.1" id="Capa_1" xmlns="http://www.w3.org/2000/svg" xmlns:xlink="http://www.w3.org/1999/xlink" x="0px" y="0px"
	 viewBox="0 0 512.002 512.002" style="enable-background:new 0 0 512.002 512.002;" xml:space="preserve">
<g>
	<g>
		<path d="M500.135,44.001c-0.295-0.391-0.607-0.773-0.957-1.123l-30.059-30.059c-0.351-0.351-0.732-0.663-1.128-0.956
			c-18.83-16.552-47.174-15.71-64.996,2.114l-113.2,113.201c-0.025,0.025-0.045,0.052-0.069,0.077
			c-0.059,0.056-0.125,0.107-0.183,0.166l-35.581,35.591c-0.002,0.002-0.003,0.003-0.005,0.005L106.872,310.1l-35.581,35.581
			c-0.003,0.003-0.006,0.007-0.009,0.01l-22.901,22.891c-9.731,9.743-11.698,24.352-5.902,36.091l-16.858,16.857
			c-7.432,7.432-9.815,18.143-7.113,27.675L2.946,464.767c-2.261,2.261-3.312,5.463-2.832,8.624l3.964,26.094
			c0.662,4.355,4.08,7.773,8.435,8.435l26.095,3.963c0.504,0.076,1.009,0.114,1.511,0.114c2.647,0,5.212-1.046,7.112-2.946
			l15.562-15.561c2.534,0.718,5.152,1.079,7.769,1.079c7.227,0,14.451-2.737,19.908-8.195l16.845-16.852
			c4.374,2.162,9.149,3.251,13.928,3.251c8.032,0,16.065-3.054,22.181-9.163l22.896-22.907l35.575-35.574
			c0.002-0.002,0.003-0.003,0.005-0.005l147.09-147.091l35.591-35.581c0.058-0.058,0.109-0.123,0.166-0.183
			c0.025-0.024,0.052-0.045,0.077-0.069L498.024,109C515.867,91.155,516.689,62.766,500.135,44.001z M477.838,49.99l-82.247,82.247
			c-2.115,2.116-4.925,3.28-7.915,3.28s-5.8-1.165-7.915-3.281c-4.365-4.365-4.365-11.466,0-15.831l82.246-82.246L477.838,49.99z
			 M36.6,491.229l-13.744-2.088l-2.087-13.743l9.46-9.46l15.832,15.832L36.6,491.229z M76.24,472.15
			c-3.073,3.072-8.11,3.12-11.238,0.107l-25.251-25.25c-3.024-3.127-2.982-8.174,0.095-11.252l15.681-15.681l36.387,36.393
			L76.24,472.15z M129.198,449.381c-4.38,4.375-11.503,4.381-15.86,0.048c-0.027-0.027-0.049-0.057-0.076-0.085l-50.61-50.61
			c-0.021-0.021-0.045-0.039-0.067-0.061c-4.347-4.39-4.338-11.5,0.025-15.87l15.793-15.784l66.575,66.575L129.198,449.381z
			 M159.203,419.367l-66.571-66.571l21.354-21.354l66.572,66.572L159.203,419.367z M194.783,383.786l-66.571-66.572l132.864-132.864
			l66.571,66.571L194.783,383.786z M341.876,236.694l-66.573-66.573l21.356-21.362l66.579,66.579L341.876,236.694z M483.794,94.775
			L377.707,200.862l-66.572-66.572L417.222,28.203c7.76-7.761,18.979-9.944,28.711-6.423l-80.398,80.398
			c-12.209,12.209-12.209,32.076-0.001,44.283c5.915,5.916,13.779,9.174,22.143,9.174c8.365,0,16.229-3.258,22.143-9.173
			l80.409-80.409C493.743,75.767,491.565,87.004,483.794,94.775z"/>
	</g>
</g>
<g>
	<g>
		<path d="M256.953,290.471c-3.928-3.927-10.298-3.927-14.226,0l-52.21,52.211c-3.928,3.928-3.928,10.298,0,14.227
			c1.965,1.964,4.539,2.946,7.113,2.946c2.574,0,5.15-0.983,7.113-2.946l52.21-52.211C260.881,300.77,260.881,294.4,256.953,290.471
			z"/>
	</g>
</g>
<g>
	<g>
		<path d="M268.483,268.882c-12.946,0-12.967,20.119,0,20.119C281.429,289.001,281.451,268.882,268.483,268.882z"/>
	</g>
</g>
<g>
</g>
<g>
</g>
<g>
</g>
<g>
</g>
<g>
</g>
<g>
</g>
<g>
</g>
<g>
</g>
<g>
</g>
<g>
</g>
<g>
</g>
<g>
</g>
<g>
</g>
<g>
</g>
<g>
</g>
</svg>
