<?xml version="1.0" standalone="no"?>
<!DOCTYPE svg PUBLIC "-//W3C//DTD SVG 20010904//EN"
 "http://www.w3.org/TR/2001/REC-SVG-20010904/DTD/svg10.dtd">
<svg version="1.0" xmlns="http://www.w3.org/2000/svg"
 width="3000.000000pt" height="3000.000000pt" viewBox="0 0 3000.000000 3000.000000"
 preserveAspectRatio="xMidYMid meet">
<metadata>
Created by potrace 1.15, written by Peter Selinger 2001-2017
</metadata>
<g transform="translate(0.000000,3000.000000) scale(0.100000,-0.100000)"
fill="#000000" stroke="none">
<path d="M14902 26712 c-46 -92 -139 -275 -208 -407 -68 -132 -141 -274 -162
-315 -20 -41 -39 -77 -42 -80 -3 -3 -28 -50 -56 -105 -58 -115 -227 -442 -356
-690 -49 -93 -105 -204 -126 -245 -20 -41 -39 -77 -42 -80 -3 -3 -35 -63 -71
-135 -36 -71 -103 -202 -149 -290 -45 -88 -115 -223 -155 -300 -40 -77 -110
-212 -155 -300 -46 -88 -113 -218 -149 -290 -36 -71 -68 -132 -71 -135 -3 -3
-32 -59 -66 -125 -33 -66 -107 -210 -164 -320 -56 -110 -128 -249 -159 -310
-31 -60 -58 -112 -61 -115 -3 -3 -36 -66 -73 -140 -38 -74 -103 -200 -144
-280 -107 -205 -205 -395 -318 -615 -54 -104 -122 -237 -153 -295 -30 -58 -87
-168 -127 -245 -40 -77 -102 -196 -137 -265 -118 -228 -260 -503 -317 -615
-31 -60 -58 -112 -61 -115 -3 -3 -32 -59 -66 -125 -33 -66 -99 -194 -146 -285
-47 -91 -131 -255 -188 -365 -56 -110 -127 -247 -158 -305 -99 -189 -189 -363
-246 -475 -51 -100 -154 -296 -202 -385 -10 -19 -22 -37 -25 -40 -6 -5 -194
-388 -209 -425 -5 -11 -20 -46 -34 -77 -14 -31 -26 -60 -26 -65 0 -4 -6 -19
-13 -33 -7 -14 -28 -68 -46 -120 -18 -52 -39 -108 -46 -125 -7 -16 -16 -46
-20 -65 -4 -19 -11 -41 -16 -50 -5 -8 -16 -42 -25 -75 -9 -33 -27 -100 -41
-150 -46 -168 -96 -417 -119 -590 -8 -60 -19 -132 -24 -160 -40 -194 -40
-1066 0 -1260 5 -27 16 -99 24 -160 27 -206 82 -462 147 -690 26 -88 106 -330
124 -370 7 -16 16 -41 20 -55 4 -14 11 -29 15 -35 4 -5 13 -28 20 -50 7 -22
16 -44 20 -50 4 -5 11 -21 15 -35 12 -41 211 -445 268 -543 77 -133 81 -140
89 -151 27 -38 98 -149 98 -153 0 -14 222 -312 345 -463 150 -186 523 -556
715 -711 361 -292 661 -485 1035 -668 184 -89 252 -121 262 -121 4 0 20 -6 34
-14 15 -8 65 -28 110 -45 46 -18 98 -39 116 -47 17 -8 36 -14 43 -14 7 0 26
-6 43 -14 33 -15 75 -28 227 -72 280 -82 490 -127 735 -160 61 -8 130 -19 155
-24 146 -31 924 -38 1145 -10 39 4 129 15 200 24 72 9 137 19 145 22 8 4 62
15 120 25 217 37 619 144 737 195 17 8 37 14 45 14 7 0 25 6 40 14 14 8 43 19
65 26 21 6 47 15 58 20 11 5 54 23 95 40 217 91 539 254 704 355 218 135 377
246 615 433 203 160 532 485 716 707 27 33 56 66 63 73 49 52 261 349 368 517
114 178 290 509 364 685 18 41 41 95 52 120 11 25 24 54 29 65 8 20 26 70 56
155 8 25 21 59 28 75 7 17 16 46 20 65 4 19 11 40 15 45 5 6 15 37 24 70 8 33
27 103 41 155 15 52 33 129 41 170 8 41 19 84 24 95 14 30 65 342 90 550 21
178 30 554 20 804 -12 268 -18 335 -49 546 -31 211 -81 456 -130 630 -10 39
-26 97 -36 130 -9 33 -22 74 -29 90 -8 17 -17 45 -21 63 -4 18 -13 45 -21 60
-8 15 -14 34 -14 42 0 8 -6 27 -14 42 -8 14 -19 43 -26 65 -7 21 -16 43 -20
48 -4 6 -13 28 -20 50 -7 22 -16 45 -20 50 -4 6 -13 28 -20 50 -7 22 -16 42
-19 45 -3 3 -22 41 -41 85 -39 91 -134 279 -190 375 -47 81 -114 208 -219 415
-44 88 -84 165 -88 170 -5 6 -34 62 -66 125 -33 63 -63 122 -68 130 -5 8 -14
26 -19 40 -6 14 -42 84 -80 155 -70 132 -127 242 -263 510 -42 83 -80 155 -84
160 -5 6 -44 81 -88 168 -44 86 -98 192 -120 235 -23 42 -92 176 -154 297 -63
121 -142 274 -176 340 -148 285 -237 459 -301 585 -38 74 -71 137 -74 140 -3
3 -24 43 -48 90 -24 47 -96 186 -160 310 -64 124 -146 282 -182 352 -114 223
-195 379 -265 513 -37 72 -106 204 -153 295 -46 91 -124 242 -172 335 -48 94
-116 226 -151 295 -35 69 -66 127 -69 130 -3 3 -28 50 -56 105 -50 98 -181
352 -356 690 -48 94 -105 204 -126 245 -20 41 -39 77 -42 80 -3 3 -35 64 -71
135 -37 72 -102 198 -144 280 -43 83 -115 222 -160 310 -105 205 -213 413
-280 540 -90 172 -256 495 -319 622 -48 96 -65 122 -81 122 -16 0 -37 -35
-103 -167z"/>
<path d="M5260 11074 c-8 -3 -24 -9 -35 -14 -11 -5 -51 -21 -90 -35 -62 -24
-152 -60 -210 -85 -11 -5 -54 -23 -95 -40 -41 -17 -88 -38 -105 -45 -34 -16
-116 -52 -190 -85 -157 -68 -654 -325 -775 -400 -8 -5 -44 -26 -80 -46 -36
-21 -90 -53 -120 -72 -30 -20 -72 -46 -92 -59 -75 -46 -123 -78 -136 -90 -7
-7 -17 -13 -21 -13 -4 0 -18 -8 -29 -17 -12 -10 -63 -47 -113 -83 -107 -77
-329 -253 -414 -330 -79 -71 -286 -282 -351 -356 -72 -84 -176 -222 -230 -307
-26 -39 -55 -84 -65 -99 -11 -15 -19 -30 -19 -33 0 -4 -16 -33 -34 -65 -19
-33 -49 -92 -66 -132 -17 -40 -35 -82 -41 -93 -30 -64 -75 -216 -96 -325 -8
-41 -18 -89 -23 -106 -13 -40 -13 -558 -1 -598 6 -17 19 -74 31 -126 33 -146
62 -228 142 -400 36 -78 131 -251 150 -275 5 -5 23 -32 41 -60 39 -61 24 -42
159 -210 225 -280 590 -609 933 -840 33 -22 74 -50 90 -61 109 -76 397 -251
545 -331 36 -20 90 -50 120 -67 30 -17 147 -77 260 -133 187 -92 241 -118 368
-174 23 -11 61 -27 85 -38 23 -10 68 -31 99 -45 31 -14 60 -26 63 -26 3 0 30
-11 58 -24 29 -13 106 -44 172 -70 66 -26 134 -53 150 -60 17 -7 66 -26 110
-41 44 -16 85 -31 90 -35 6 -4 24 -10 40 -14 17 -4 44 -14 60 -21 38 -17 224
-82 290 -102 28 -8 59 -18 70 -23 23 -10 124 -43 275 -89 58 -18 112 -36 120
-40 8 -4 40 -14 70 -21 30 -7 60 -16 65 -20 6 -3 37 -13 70 -20 33 -7 65 -17
70 -21 6 -4 37 -12 70 -19 33 -7 65 -16 70 -20 6 -4 39 -15 75 -24 36 -8 99
-25 140 -36 118 -32 258 -69 340 -90 41 -10 113 -28 160 -40 187 -46 418 -99
725 -165 234 -50 636 -128 850 -164 61 -11 119 -22 130 -25 11 -4 65 -13 120
-21 55 -8 156 -23 225 -34 69 -11 172 -26 230 -35 58 -9 132 -21 165 -27 175
-32 1151 -149 1590 -189 121 -11 238 -23 260 -26 51 -6 372 -30 670 -48 127
-8 286 -20 355 -25 69 -6 262 -15 430 -21 168 -6 352 -15 410 -20 141 -13
2585 -13 2734 0 61 5 246 14 411 20 165 6 356 15 425 21 69 5 231 17 360 25
322 20 628 42 670 48 19 3 134 15 255 26 296 27 655 67 1065 119 388 49 469
60 525 70 74 14 235 38 375 57 58 7 114 16 125 19 11 3 72 15 135 25 154 25
322 55 450 79 169 32 311 59 370 71 30 7 89 18 130 27 227 45 669 145 860 193
47 12 119 30 160 40 41 11 118 30 170 44 52 14 124 33 160 41 36 9 72 19 80
22 8 4 44 14 80 24 36 9 97 26 135 37 39 12 97 28 130 37 33 9 69 20 80 25 11
5 40 14 65 20 25 6 54 15 65 20 11 5 67 23 125 40 140 42 487 158 527 176 17
8 37 14 45 14 7 1 31 9 53 20 22 11 47 20 55 20 8 0 33 9 55 20 22 11 47 20
55 20 8 0 33 9 55 20 22 11 44 19 48 20 5 0 23 6 40 14 18 8 95 39 172 70 77
30 154 62 170 70 17 9 34 16 38 16 5 0 34 12 65 26 31 14 76 35 100 45 113 51
135 61 180 80 91 41 477 233 527 262 28 16 82 45 120 65 39 19 97 52 130 71
68 41 81 49 145 87 25 15 81 50 125 79 44 28 107 69 140 91 33 21 62 41 65 44
3 3 25 18 50 35 25 16 57 39 71 50 14 11 36 27 49 35 32 21 284 223 361 290
221 191 474 475 613 690 27 41 57 87 67 102 11 15 19 29 19 32 0 2 16 33 36
68 38 66 124 254 124 270 0 5 9 28 19 51 11 23 22 60 26 82 4 22 12 48 17 58
5 10 17 53 25 95 25 114 24 654 0 762 -10 41 -19 80 -21 85 -1 6 -6 24 -10 40
-55 220 -193 501 -366 745 -148 208 -442 511 -689 710 -24 19 -48 40 -55 45
-6 6 -47 37 -91 70 -44 33 -82 62 -85 65 -14 14 -307 209 -407 271 -235 146
-735 411 -963 511 -57 26 -153 68 -185 83 -16 7 -56 25 -87 39 -31 14 -60 26
-63 26 -7 0 -27 9 -120 51 -187 85 -384 17 -468 -161 -33 -69 -31 -187 5 -262
36 -75 94 -132 173 -169 35 -16 66 -29 70 -29 4 0 21 -7 38 -14 18 -8 95 -43
172 -76 245 -108 544 -253 710 -344 44 -25 103 -56 131 -70 29 -15 67 -37 85
-49 19 -13 77 -48 129 -79 99 -58 369 -237 390 -258 3 -3 41 -32 85 -65 81
-61 108 -82 129 -100 6 -5 51 -43 99 -84 117 -98 333 -324 417 -436 105 -140
191 -289 260 -450 68 -158 106 -396 91 -562 -10 -104 -39 -254 -52 -267 -5 -6
-9 -16 -9 -24 0 -26 -102 -267 -119 -282 -3 -3 -13 -18 -21 -35 -36 -73 -135
-209 -253 -350 -90 -108 -386 -386 -473 -445 -18 -12 -201 -148 -239 -178 -32
-25 -228 -153 -270 -177 -27 -16 -52 -32 -55 -35 -14 -18 -346 -199 -565 -309
-259 -131 -327 -163 -530 -251 -66 -28 -134 -58 -152 -66 -17 -8 -35 -14 -40
-14 -4 0 -30 -12 -58 -25 -27 -14 -57 -25 -65 -25 -9 0 -20 -4 -25 -9 -6 -5
-28 -14 -50 -21 -22 -7 -45 -17 -51 -21 -6 -5 -31 -16 -55 -23 -24 -8 -75 -27
-114 -41 -38 -15 -117 -44 -175 -64 -58 -21 -112 -41 -120 -44 -8 -3 -58 -20
-110 -37 -52 -17 -104 -35 -115 -40 -11 -4 -67 -23 -125 -40 -58 -18 -130 -41
-160 -50 -30 -10 -89 -28 -130 -41 -41 -12 -102 -30 -135 -40 -105 -32 -199
-58 -230 -65 -16 -4 -34 -10 -40 -14 -5 -4 -39 -13 -75 -20 -36 -7 -69 -16
-75 -20 -5 -4 -37 -13 -70 -19 -33 -7 -69 -16 -80 -21 -11 -5 -51 -16 -90 -25
-38 -9 -115 -28 -170 -41 -262 -65 -507 -121 -715 -165 -52 -11 -138 -29 -190
-40 -203 -43 -503 -100 -655 -124 -49 -8 -108 -19 -130 -25 -22 -6 -85 -17
-140 -25 -55 -9 -156 -25 -225 -35 -209 -34 -388 -60 -535 -80 -77 -10 -149
-21 -160 -24 -11 -3 -81 -13 -155 -21 -74 -9 -187 -22 -250 -30 -63 -8 -123
-14 -132 -15 -17 0 -18 29 -18 480 l0 479 74 89 c85 102 139 149 213 187 79
39 134 42 217 11 37 -14 81 -26 98 -26 40 0 92 24 112 51 20 29 21 95 1 133
-8 15 -15 39 -15 53 0 35 -57 89 -111 103 -25 7 -73 10 -114 7 -131 -10 -240
-70 -380 -208 l-90 -89 3 90 c3 77 1 90 -12 90 -12 0 -16 11 -16 45 l0 45
-390 0 -390 0 0 -810 0 -810 -22 -5 c-13 -2 -50 -6 -83 -9 -33 -2 -112 -8
-175 -14 -63 -6 -155 -13 -204 -16 l-88 -6 74 50 c85 56 213 186 234 236 18
43 18 95 -1 120 -8 10 -15 33 -15 50 0 41 -29 66 -71 62 -29 -3 -44 -17 -112
-101 -96 -120 -202 -206 -322 -263 -148 -70 -324 -93 -389 -50 -13 8 -26 29
-30 47 -3 17 -6 141 -6 275 l0 244 163 0 c89 0 314 3 500 7 l337 6 0 67 c0
138 -56 363 -125 500 -95 190 -271 339 -486 411 -81 28 -112 33 -225 37 -267
9 -464 -66 -645 -247 -193 -193 -278 -439 -250 -730 14 -148 32 -229 75 -331
75 -177 189 -305 370 -414 l55 -33 -122 -6 c-67 -4 -255 -9 -417 -13 l-295 -5
40 19 c191 92 357 347 291 446 -9 14 -16 35 -16 46 0 39 -19 60 -54 60 -41 0
-55 -15 -98 -110 -54 -118 -134 -195 -195 -188 l-28 3 -6 235 c-4 129 -7 412
-8 629 l-1 394 143 -6 c169 -8 190 -2 195 56 2 22 -3 48 -11 60 -8 12 -16 39
-19 59 l-4 37 71 5 c38 3 167 12 285 21 314 22 546 42 620 54 36 6 130 18 210
27 282 30 386 43 435 54 28 6 100 17 160 25 61 8 164 24 230 34 279 46 356 60
374 66 11 3 66 14 123 25 130 23 277 54 393 80 50 12 126 29 170 39 44 10 87
20 95 24 8 3 47 13 85 22 167 40 260 64 465 124 36 10 92 26 125 35 33 9 69
21 80 25 11 5 65 23 120 41 55 17 109 35 120 40 11 5 38 14 60 21 22 6 45 15
50 19 6 4 24 10 40 14 17 4 44 14 60 21 28 13 47 20 170 65 51 18 101 39 260
110 629 279 1116 616 1399 970 70 88 176 249 176 267 0 7 4 13 9 13 5 0 13 10
16 23 8 24 52 132 65 158 5 9 21 63 36 120 27 98 28 116 28 314 0 125 -4 226
-11 250 -6 22 -19 67 -27 100 -9 33 -23 74 -31 92 -8 17 -15 34 -15 38 0 11
-52 118 -83 170 -153 258 -334 449 -667 706 -13 10 -29 19 -35 19 -5 0 -23 7
-40 16 -19 10 -56 16 -100 17 -59 0 -81 -5 -135 -31 -96 -46 -146 -100 -181
-194 -20 -54 -26 -172 -10 -182 4 -3 11 -20 15 -37 8 -44 62 -106 154 -181
263 -213 419 -400 472 -563 7 -22 16 -44 20 -50 29 -39 29 -248 0 -336 -27
-81 -82 -199 -92 -199 -4 0 -8 -5 -8 -11 0 -23 -122 -169 -215 -257 -91 -87
-273 -230 -355 -280 -75 -45 -165 -99 -229 -135 -66 -38 -346 -177 -431 -215
-25 -10 -65 -28 -90 -39 -25 -11 -94 -39 -155 -63 -60 -23 -117 -46 -125 -50
-9 -4 -65 -24 -125 -45 -61 -20 -123 -43 -140 -50 -16 -7 -46 -16 -65 -20 -19
-4 -41 -11 -50 -15 -27 -15 -211 -70 -230 -70 -10 0 -21 -4 -24 -8 -3 -5 -31
-14 -63 -21 -32 -7 -62 -17 -68 -21 -5 -4 -39 -13 -75 -20 -36 -7 -72 -17 -81
-21 -9 -5 -54 -17 -100 -28 -46 -11 -122 -29 -169 -41 -47 -12 -119 -28 -160
-36 -41 -8 -82 -18 -90 -21 -16 -7 -144 -34 -275 -58 -44 -8 -96 -20 -115 -25
-19 -6 -75 -17 -125 -25 -49 -8 -142 -24 -205 -35 -257 -45 -668 -102 -895
-125 -82 -8 -172 -19 -200 -25 -27 -5 -122 -14 -210 -20 -88 -6 -187 -15 -220
-21 -54 -9 -177 -17 -775 -51 -238 -14 -1726 -14 -1965 0 -549 32 -621 37
-990 71 -287 27 -491 49 -560 61 -33 6 -114 17 -180 25 -141 17 -402 56 -565
84 -63 11 -158 27 -210 36 -52 8 -102 18 -110 22 -8 3 -60 14 -115 24 -55 10
-143 27 -195 39 -52 12 -129 28 -170 36 -41 8 -84 19 -95 24 -11 5 -51 16 -90
24 -81 17 -204 49 -470 121 -33 8 -69 20 -80 25 -11 4 -42 14 -70 20 -27 6
-54 15 -60 19 -5 5 -35 14 -65 21 -30 7 -59 16 -65 20 -5 5 -30 13 -55 19 -25
7 -54 16 -65 21 -11 6 -40 16 -65 24 -83 27 -165 56 -195 70 -16 8 -42 18 -58
21 -15 4 -30 11 -33 16 -3 5 -13 9 -22 9 -9 0 -39 11 -67 25 -27 13 -54 25
-58 25 -5 0 -34 12 -65 26 -31 14 -77 35 -102 46 -218 98 -508 255 -640 346
-36 25 -78 55 -95 66 -108 75 -321 269 -375 341 -8 11 -27 36 -41 55 -39 53
-105 173 -119 216 -6 22 -17 50 -23 63 -16 32 -16 293 -1 312 6 8 14 28 18 44
20 87 140 267 255 384 81 83 221 200 317 266 75 52 154 124 154 141 0 8 4 14
8 14 12 0 30 63 38 130 7 59 -14 166 -38 197 -94 118 -188 168 -303 161 -105
-7 -169 -44 -410 -236 -131 -104 -292 -264 -386 -382 -75 -96 -100 -131 -157
-227 -54 -90 -103 -213 -140 -348 -25 -93 -27 -114 -27 -300 1 -176 3 -211 24
-290 109 -427 409 -801 916 -1143 191 -129 240 -158 534 -312 25 -13 201 -96
256 -120 28 -12 69 -31 92 -41 23 -11 45 -19 49 -19 4 0 25 -9 48 -19 23 -10
75 -31 116 -47 41 -15 93 -35 115 -45 23 -10 54 -21 70 -25 16 -4 40 -13 54
-20 14 -8 33 -14 41 -14 8 0 26 -6 40 -13 14 -7 48 -19 75 -27 28 -7 55 -16
60 -20 6 -3 30 -12 55 -19 25 -6 54 -16 65 -21 11 -5 47 -17 80 -26 33 -9 89
-25 125 -35 219 -63 306 -86 465 -124 39 -9 77 -19 85 -22 8 -4 51 -14 95 -24
44 -10 123 -28 175 -39 350 -79 859 -172 1120 -205 63 -8 131 -19 150 -24 19
-6 89 -15 155 -21 66 -6 136 -15 155 -20 19 -6 107 -17 195 -26 88 -8 183 -18
211 -22 l51 -7 -102 -255 c-90 -226 -209 -500 -252 -583 l-15 -29 -240 433
c-132 239 -248 447 -258 463 l-18 29 -24 -44 c-14 -24 -91 -172 -172 -329
-143 -276 -306 -570 -316 -570 -3 0 -36 60 -73 133 -37 72 -134 259 -214 415
l-147 282 -433 0 -433 0 21 -42 c19 -36 19 -42 5 -50 -20 -11 -21 -7 99 -233
117 -219 498 -950 574 -1104 29 -57 50 -106 47 -109 -7 -7 -243 15 -306 28
-25 6 -101 16 -170 24 -259 30 -676 92 -1050 156 -63 11 -169 28 -235 39 -66
11 -127 22 -136 26 -9 3 -67 14 -130 25 -120 20 -248 44 -414 80 -55 11 -140
29 -190 40 -190 40 -466 104 -710 164 -55 13 -131 32 -170 41 -38 9 -79 20
-90 25 -11 5 -45 14 -75 20 -30 6 -64 15 -75 20 -11 5 -45 14 -75 20 -30 6
-64 15 -75 20 -19 9 -48 17 -192 55 -32 9 -65 19 -73 24 -9 5 -31 12 -50 16
-33 6 -57 13 -240 71 -96 30 -470 153 -490 161 -13 5 -108 39 -275 100 -64 23
-168 63 -200 78 -16 7 -42 17 -58 20 -15 4 -30 11 -33 16 -3 5 -12 9 -19 9 -8
0 -39 11 -69 25 -30 14 -58 25 -61 25 -4 0 -23 7 -43 16 -21 9 -55 25 -77 34
-506 223 -941 445 -1195 610 -25 17 -51 33 -59 37 -16 7 -161 104 -266 177
-59 42 -99 72 -235 179 -88 69 -195 164 -310 277 -65 64 -239 264 -266 306
-10 16 -21 31 -24 34 -4 3 -28 41 -54 85 -27 44 -56 91 -66 105 -9 14 -21 37
-25 50 -4 14 -13 32 -20 40 -7 8 -18 33 -25 55 -7 22 -16 45 -20 50 -4 6 -13
28 -19 50 -7 22 -16 49 -21 60 -59 131 -59 603 0 707 6 10 10 23 10 28 0 21
65 176 109 260 39 75 135 228 175 277 278 344 580 603 1056 905 232 147 650
369 930 495 25 12 80 37 123 57 43 20 81 36 84 36 4 0 25 9 47 19 23 11 70 32
106 46 36 15 83 35 105 45 22 10 51 21 65 25 14 4 30 11 35 15 6 4 27 13 48
20 172 55 264 204 236 381 -23 144 -152 257 -304 265 -38 2 -77 1 -85 -2z
m7885 -5504 c28 -5 109 -12 180 -16 72 -4 136 -10 143 -13 8 -4 -9 -12 -39
-19 -67 -16 -228 -92 -278 -131 -45 -36 -66 -80 -57 -118 4 -16 6 -49 6 -75
-1 -64 30 -98 90 -98 53 0 84 17 145 80 66 69 137 114 232 147 69 24 93 27
208 28 119 0 134 -2 179 -25 86 -43 90 -55 94 -257 l4 -175 -23 12 c-48 26
-194 70 -270 81 -103 15 -313 6 -399 -16 -195 -52 -363 -176 -431 -318 -44
-94 -55 -176 -41 -331 20 -233 83 -353 245 -467 l70 -49 -64 0 c-35 0 -107 4
-159 10 -52 6 -219 17 -371 24 -152 7 -283 17 -291 22 -16 9 -15 12 349 799
330 715 360 791 319 824 -9 7 -16 28 -16 45 0 18 -6 38 -12 44 -10 10 3 11 62
7 41 -4 98 -11 125 -15z m1686 -80 c156 0 153 1 149 -92 -1 -40 2 -49 25 -64
21 -14 41 -16 112 -11 l86 5 -5 -412 c-8 -593 7 -786 69 -912 37 -76 124 -163
203 -202 l63 -32 -729 2 c-466 2 -576 4 -306 5 470 4 440 -2 402 72 -10 21
-17 41 -14 44 3 3 -5 25 -18 49 l-23 43 -5 550 -6 550 -31 93 c-18 51 -41 108
-53 126 -40 65 -123 128 -229 173 l-56 24 115 -5 c63 -3 176 -6 251 -6z m2576
-149 c23 -11 46 -28 52 -39 7 -13 11 -114 11 -281 l0 -261 -170 0 -170 0 0
198 c1 306 12 356 85 388 45 20 143 17 192 -5z m-3491 -615 c38 -13 82 -29 97
-37 l28 -13 -3 -254 -3 -254 -40 -35 c-22 -19 -73 -51 -114 -71 -62 -31 -85
-37 -138 -37 -46 0 -67 4 -74 15 -14 21 -6 615 9 652 7 16 26 37 44 49 40 24
91 21 194 -15z m-2057 -484 c112 -195 201 -355 199 -357 -2 -2 -46 0 -98 5
-52 5 -180 15 -285 24 -171 14 -323 30 -382 42 -19 4 -8 28 136 291 212 388
204 375 217 360 6 -7 102 -171 213 -365z"/>
<path d="M12895 7830 c0 -610 3 -1110 7 -1110 4 0 8 -26 10 -57 l3 -58 427 -3
427 -2 3 90 3 89 69 -55 c83 -67 184 -119 268 -139 85 -20 279 -19 371 1 232
52 452 233 571 471 96 192 127 480 76 708 -15 65 -75 225 -116 306 -96 192
-296 363 -509 435 -106 36 -303 45 -417 20 -84 -19 -199 -70 -270 -122 l-48
-34 0 235 c0 228 -1 235 -20 235 -17 0 -20 7 -20 50 l0 50 -418 0 -417 0 0
-1110z m1319 441 c15 -17 17 -71 14 -697 -3 -619 -5 -682 -20 -710 -20 -37
-35 -44 -92 -44 -66 0 -166 56 -264 146 l-82 76 2 516 3 516 75 63 c99 84 235
153 299 153 34 0 53 -5 65 -19z"/>
<path d="M15983 8524 c-286 -62 -536 -270 -651 -540 -79 -187 -96 -377 -53
-607 62 -335 227 -570 502 -712 148 -76 214 -90 429 -89 173 0 191 2 275 28
214 65 381 162 507 294 84 88 115 148 104 206 -4 20 -14 41 -24 48 -9 7 -18
28 -19 46 -2 45 -19 62 -64 62 -34 0 -43 -6 -81 -52 -185 -223 -344 -337 -542
-388 -94 -24 -221 -27 -271 -6 l-35 15 0 299 0 299 167 6 c91 4 337 7 546 7
l379 0 -7 93 c-20 268 -129 550 -276 711 -115 126 -287 229 -455 272 -81 20
-119 24 -233 23 -75 -1 -164 -7 -198 -15z m377 -230 c22 -9 45 -25 50 -35 6
-10 10 -138 10 -303 l0 -286 -180 0 -180 0 0 234 c0 313 10 359 85 392 43 19
166 18 215 -2z"/>
</g>
</svg>
