<?xml version="1.0" standalone="no"?>
<!DOCTYPE svg PUBLIC "-//W3C//DTD SVG 20010904//EN"
 "http://www.w3.org/TR/2001/REC-SVG-20010904/DTD/svg10.dtd">
<svg version="1.0" xmlns="http://www.w3.org/2000/svg"
 width="400.000000pt" height="400.000000pt" viewBox="0 0 400.000000 400.000000"
 preserveAspectRatio="xMidYMid meet">
<metadata>
Created by potrace 1.15, written by Peter Selinger 2001-2017
</metadata>
<g transform="translate(0.000000,400.000000) scale(0.100000,-0.100000)"
fill="#000000" stroke="none">
<path d="M1717 3874 c-806 -121 -1434 -715 -1603 -1516 -35 -167 -44 -466 -20
-641 32 -224 91 -410 197 -617 188 -366 485 -659 854 -840 808 -398 1784 -180
2347 525 293 368 447 866 410 1326 -40 491 -230 900 -573 1235 -288 280 -606
443 -1014 521 -116 22 -472 26 -598 7z m591 -323 c466 -102 848 -381 1080
-788 192 -337 256 -749 172 -1122 -91 -410 -333 -763 -680 -996 -471 -316
-1066 -359 -1576 -115 -448 215 -780 638 -885 1128 -26 122 -36 390 -20 512
96 721 637 1277 1358 1395 127 21 426 13 551 -14z"/>
<path d="M1790 3315 c-554 -91 -983 -564 -1007 -1111 l-6 -121 28 -21 c26 -21
39 -22 187 -22 198 0 228 11 228 86 0 14 -11 36 -25 49 -23 24 -30 25 -144 25
l-119 0 5 43 c16 139 81 318 161 443 92 143 46 165 405 -194 l312 -312 -3 -41
c-6 -57 22 -124 66 -157 31 -23 45 -27 106 -27 59 0 77 4 105 24 62 45 86 135
56 208 -31 75 -81 106 -166 106 l-56 -1 -313 313 -313 313 59 46 c120 94 341
184 493 202 l61 7 0 -122 c0 -108 2 -123 20 -141 12 -12 33 -20 55 -20 22 0
43 8 55 20 18 18 20 33 20 141 l0 122 61 -7 c170 -20 412 -125 527 -229 l22
-21 -86 -88 c-81 -82 -86 -90 -80 -120 8 -41 39 -68 78 -68 24 0 47 16 112 80
45 44 85 80 89 80 4 0 28 -28 53 -62 95 -129 171 -317 192 -472 l9 -66 -119 0
c-113 0 -120 -1 -143 -25 -30 -29 -32 -74 -6 -106 19 -24 22 -24 199 -24 225
0 222 -1 222 120 0 467 -325 917 -787 1091 -170 64 -431 89 -613 59z"/>
<path d="M900 1700 l0 -180 130 0 130 0 0 180 0 180 -130 0 -130 0 0 -180z
m250 0 l0 -170 -120 0 -120 0 0 170 0 170 120 0 120 0 0 -170z"/>
<path d="M994 1823 c-23 -17 -34 -54 -34 -122 0 -106 23 -139 91 -129 34 4 59
60 59 128 0 32 -7 69 -18 90 -14 29 -23 35 -52 38 -19 1 -40 -1 -46 -5z"/>
<path d="M1170 1700 l0 -180 130 0 130 0 0 180 0 180 -130 0 -130 0 0 -180z
m250 0 l0 -170 -120 0 -120 0 0 170 0 170 120 0 120 0 0 -170z"/>
<path d="M1440 1700 l0 -180 130 0 130 0 0 180 0 180 -130 0 -130 0 0 -180z
m250 0 l0 -170 -120 0 -120 0 0 170 0 170 120 0 120 0 0 -170z"/>
<path d="M1516 1808 c-9 -12 -16 -30 -16 -40 0 -25 36 -23 43 2 7 26 33 36 52
20 23 -19 19 -28 -40 -86 -48 -48 -55 -60 -55 -94 l0 -40 70 0 c63 0 70 2 70
20 0 16 -8 19 -57 22 l-58 3 58 61 c47 50 57 67 57 95 0 46 -15 59 -66 59 -33
0 -47 -5 -58 -22z"/>
<path d="M1710 1700 l0 -180 130 0 130 0 0 180 0 180 -130 0 -130 0 0 -180z
m250 0 l0 -170 -120 0 -120 0 0 170 0 170 120 0 120 0 0 -170z"/>
<path d="M1782 1807 c-17 -18 -19 -26 -10 -35 9 -9 17 -7 34 9 29 27 64 18 64
-17 0 -16 -8 -28 -25 -36 -29 -13 -33 -38 -7 -38 24 0 42 -19 42 -45 0 -44
-44 -59 -74 -26 -10 11 -24 17 -32 14 -39 -15 12 -63 66 -63 51 0 80 27 80 74
0 19 -7 42 -15 50 -12 12 -13 20 -5 35 39 74 -60 140 -118 78z"/>
<path d="M1990 1700 l0 -180 130 0 130 0 0 180 0 180 -130 0 -130 0 0 -180z
m156 112 c39 -26 52 -157 21 -206 -23 -34 -70 -36 -91 -3 -59 92 -3 258 70
209z"/>
<path d="M2086 1788 c-19 -26 -22 -147 -6 -179 16 -30 68 -26 80 7 14 36 12
134 -3 164 -17 33 -51 37 -71 8z"/>
<path d="M2270 1700 l0 -180 130 0 130 0 0 180 0 180 -130 0 -130 0 0 -180z"/>
<path d="M2550 1700 l0 -180 130 0 130 0 0 180 0 180 -130 0 -130 0 0 -180z"/>
<path d="M2830 1700 l0 -180 130 0 130 0 0 180 0 180 -130 0 -130 0 0 -180z"/>
</g>
</svg>
