<?xml version="1.0" standalone="no"?>
<!DOCTYPE svg PUBLIC "-//W3C//DTD SVG 20010904//EN"
 "http://www.w3.org/TR/2001/REC-SVG-20010904/DTD/svg10.dtd">
<svg version="1.0" xmlns="http://www.w3.org/2000/svg"
 width="236.000000pt" height="232.000000pt" viewBox="0 0 236.000000 232.000000"
 preserveAspectRatio="xMidYMid meet">
<metadata>
Created by potrace 1.15, written by Peter Selinger 2001-2017
</metadata>
<g transform="translate(0.000000,232.000000) scale(0.100000,-0.100000)"
fill="#000000" stroke="none">
<path d="M159 2197 c-18 -12 -44 -38 -56 -56 l-23 -34 0 -977 0 -977 23 -34
c12 -18 38 -44 56 -56 l34 -23 983 2 c979 3 983 3 1011 24 15 11 38 36 50 54
l23 33 0 977 0 977 -22 33 c-13 18 -36 43 -51 54 -28 21 -32 21 -1011 24
l-983 2 -34 -23z m1941 -1067 l0 -930 -930 0 -930 0 0 930 0 930 930 0 930 0
0 -930z"/>
<path d="M416 1472 c-7 -12 -9 -649 -1 -662 3 -5 37 -10 76 -10 l69 0 0 135 0
135 38 -1 c79 -1 102 -33 102 -145 0 -40 5 -85 12 -99 11 -25 14 -26 87 -23
70 3 76 5 73 23 -5 30 -22 154 -28 202 -4 30 -14 52 -35 73 l-30 30 32 40 c29
36 33 47 33 103 0 79 -25 131 -82 172 -43 30 -45 30 -192 33 -82 2 -150 -1
-154 -6z m249 -137 c19 -18 25 -35 25 -65 0 -56 -34 -90 -90 -90 l-40 0 0 90
0 90 40 0 c30 0 47 -7 65 -25z"/>
<path d="M926 1465 c-3 -9 -6 -113 -6 -232 0 -256 9 -299 73 -365 97 -99 281
-92 371 14 52 60 57 95 54 358 l-3 235 -69 3 c-49 2 -72 -1 -77 -10 -5 -7 -9
-122 -9 -255 l0 -241 -31 -26 c-17 -14 -42 -26 -55 -26 -29 0 -69 24 -81 48
-4 9 -10 127 -13 262 l-5 245 -71 3 c-59 2 -73 0 -78 -13z"/>
<path d="M1456 1468 c-12 -37 -13 -87 -3 -97 6 -6 42 -11 79 -11 l68 0 1 -242
c1 -134 0 -253 -1 -266 -3 -40 17 -52 85 -52 48 0 64 4 69 16 3 9 6 135 6 280
l0 264 69 0 c45 0 72 5 80 13 13 17 12 90 -3 99 -6 4 -109 8 -229 8 -165 0
-219 -3 -221 -12z"/>
</g>
</svg>
